<?xml version="1.0" standalone="no"?>
<!DOCTYPE svg PUBLIC "-//W3C//DTD SVG 20010904//EN"
 "http://www.w3.org/TR/2001/REC-SVG-20010904/DTD/svg10.dtd">
<svg version="1.0" xmlns="http://www.w3.org/2000/svg"
 width="300.000000pt" height="300.000000pt" viewBox="0 0 300.000000 300.000000"
 preserveAspectRatio="xMidYMid meet">
<metadata>
Created by potrace 1.11, written by Peter Selinger 2001-2013
</metadata>
<g transform="translate(0.000000,300.000000) scale(0.100000,-0.100000)"
fill="#000000" stroke="none">
<path d="M757 2753 c-3 -5 -14 -24 -24 -43 -11 -19 -98 -168 -193 -330 -95
-162 -182 -311 -193 -330 -10 -19 -82 -142 -159 -273 -76 -131 -144 -249 -150
-262 -9 -20 -2 -36 48 -122 32 -54 66 -112 76 -130 9 -17 44 -77 78 -133 33
-56 60 -104 60 -106 0 -2 16 -28 35 -58 19 -30 35 -58 35 -61 0 -4 8 -19 19
-33 10 -15 29 -45 41 -67 46 -81 71 -124 194 -335 69 -118 127 -219 129 -223
3 -11 1477 -11 1487 0 5 4 48 76 96 158 129 221 225 386 244 420 10 17 40 68
67 115 28 47 108 184 178 305 70 121 132 227 138 236 7 12 -19 64 -118 235
-70 120 -157 269 -191 329 -35 61 -68 117 -73 125 -5 8 -67 114 -138 235 -70
121 -133 229 -140 240 -7 11 -18 31 -25 45 -7 14 -15 27 -19 30 -3 3 -8 13
-12 23 -6 16 -51 17 -746 17 -407 0 -742 -3 -744 -7z m1549 -521 c104 -179
200 -344 214 -368 14 -24 67 -115 118 -202 50 -88 92 -162 92 -166 0 -4 -23
-46 -52 -94 -28 -48 -66 -112 -83 -142 -39 -67 -168 -289 -345 -592 -85 -147
-138 -228 -148 -229 -123 -6 -1216 1 -1222 7 -22 23 -611 1046 -608 1057 2 7
140 247 307 533 l303 521 617 0 617 0 190 -325z"/>
<path d="M1408 2075 c-2 -1 -34 -5 -72 -9 -37 -3 -85 -10 -105 -15 -20 -6 -49
-12 -65 -15 -16 -3 -32 -10 -35 -15 -4 -6 -6 -50 -6 -98 1 -72 4 -87 16 -84 8
2 38 12 68 22 211 73 451 61 530 -24 40 -44 59 -156 27 -158 -6 0 -22 -2 -36
-4 -14 -1 -68 -6 -120 -9 -146 -11 -214 -21 -289 -43 -155 -44 -261 -140 -287
-257 -12 -51 -6 -165 10 -214 82 -246 413 -311 676 -132 l60 41 1 -28 c1 -15
2 -41 3 -58 l1 -29 90 3 c49 1 91 4 94 6 2 2 3 186 3 407 0 282 -4 417 -12
448 -40 147 -131 223 -310 256 -36 6 -236 14 -242 9z m375 -704 c0 -164 2
-160 -103 -215 -89 -47 -160 -65 -246 -62 -89 3 -154 33 -185 83 -33 53 -33
157 0 205 57 83 160 117 406 134 55 3 102 8 104 10 16 15 23 -32 24 -155z"/>
</g>
</svg>
